<?xml version="1.0" encoding="UTF-8"?>
<svg version="1.1" xmlns="http://www.w3.org/2000/svg" width="330" height="306">
<path d="M0 0 C1.1471196 0.00990463 2.2942392 0.01980927 3.47612 0.03001404 C7.13512745 0.06915722 10.79112019 0.15698899 14.44921875 0.24609375 C16.93159726 0.28120725 19.41402286 0.31314616 21.89648438 0.34179688 C27.97758873 0.41891923 34.05693839 0.53601072 40.13671875 0.68359375 C39.35074425 2.11715492 38.56245044 3.54944463 37.77319336 4.98120117 C37.11509926 6.17781624 37.11509926 6.17781624 36.44371033 7.39860535 C34.71817588 10.41532425 32.75341455 13.19427037 30.69921875 15.99609375 C29.82321108 17.20239388 28.94827616 18.40947351 28.07421875 19.6171875 C27.605 20.26413574 27.13578125 20.91108398 26.65234375 21.57763672 C23.79717524 25.544886 21.00002609 29.55287201 18.19921875 33.55859375 C17.60069092 34.41404785 17.00216309 35.26950195 16.38549805 36.15087891 C12.73613822 41.37415203 9.11291649 46.61452792 5.51171875 51.87109375 C0.30138056 59.47586079 -5.00907291 67.00758742 -10.33837891 74.52929688 C-12.38523329 77.42097844 -14.42587371 80.31702135 -16.46679688 83.21289062 C-22.23351009 91.39288819 -28.02569523 99.5540135 -33.86328125 107.68359375 C-34.37536133 108.39692871 -34.88744141 109.11026367 -35.41503906 109.84521484 C-42.13482995 119.19822147 -48.89258183 128.5152354 -55.86328125 137.68359375 C-56.45012695 138.45606445 -57.03697266 139.22853516 -57.64160156 140.02441406 C-65.68172912 150.60311174 -73.7250533 161.18006802 -81.86328125 171.68359375 C-82.33137207 172.28848633 -82.79946289 172.89337891 -83.28173828 173.51660156 C-84.76388389 175.42907881 -86.25041165 177.33806739 -87.73828125 179.24609375 C-88.19114502 179.83060303 -88.64400879 180.4151123 -89.1105957 181.01733398 C-91.5323816 184.11115982 -94.07247062 186.92407023 -96.86328125 189.68359375 C-97.19328125 190.34359375 -97.52328125 191.00359375 -97.86328125 191.68359375 C-99.18328125 191.35359375 -100.50328125 191.02359375 -101.86328125 190.68359375 C-101.86328125 190.02359375 -101.86328125 189.36359375 -101.86328125 188.68359375 C-104.78261512 189.10707737 -107.69791964 189.54671669 -110.61328125 189.99609375 C-111.85078125 190.17301758 -111.85078125 190.17301758 -113.11328125 190.35351562 C-117.50332396 191.04388524 -120.46877248 191.62339267 -123.86328125 194.68359375 C-124.52328125 194.68359375 -125.18328125 194.68359375 -125.86328125 194.68359375 C-125.86328125 193.69359375 -125.86328125 192.70359375 -125.86328125 191.68359375 C-127.14356201 191.98177002 -128.42384277 192.27994629 -129.74291992 192.5871582 C-134.73122713 193.69393335 -139.73357652 194.49704057 -144.7890625 195.2265625 C-145.69907516 195.35928055 -146.60908783 195.4919986 -147.54667664 195.6287384 C-149.45313249 195.90530056 -151.35986056 196.17999224 -153.2668457 196.45288086 C-156.18629839 196.87260578 -159.10383406 197.30427403 -162.02148438 197.73632812 C-163.88140504 198.00463776 -165.74142776 198.27224104 -167.6015625 198.5390625 C-168.4713826 198.66919235 -169.3412027 198.7993222 -170.23738098 198.93339539 C-171.04890121 199.04714005 -171.86042145 199.1608847 -172.6965332 199.27807617 C-173.4066304 199.38085373 -174.1167276 199.48363129 -174.8483429 199.58952332 C-177.04739056 199.69218917 -178.76499039 199.3172682 -180.86328125 198.68359375 C-180.18523437 198.01457031 -179.5071875 197.34554687 -178.80859375 196.65625 C-175.3725704 193.21901934 -172.05710246 189.67103655 -168.73828125 186.12109375 C-168.07812012 185.41509033 -167.41795898 184.70908691 -166.73779297 183.98168945 C-164.77818022 181.88366451 -162.82058812 179.78376973 -160.86328125 177.68359375 C-160.32767578 177.11060547 -159.79207031 176.53761719 -159.24023438 175.94726562 C-153.4270488 169.72158068 -147.88505617 163.38235802 -142.640625 156.66796875 C-141.76083984 155.68570313 -141.76083984 155.68570313 -140.86328125 154.68359375 C-140.20328125 154.68359375 -139.54328125 154.68359375 -138.86328125 154.68359375 C-138.64800781 154.14863281 -138.43273437 153.61367187 -138.2109375 153.0625 C-136.37077723 149.81421709 -133.86484302 147.29941357 -131.30078125 144.62109375 C-127.4802756 140.56319746 -123.79129864 136.47159368 -120.30078125 132.12109375 C-117.12849982 128.16864907 -113.81485823 124.39225371 -110.36328125 120.68359375 C-106.07864405 116.07894216 -102.06694064 111.31848775 -98.125 106.4140625 C-94.9231499 102.54861653 -91.50307635 98.89661733 -88.09765625 95.2109375 C-86.18110786 93.04309343 -84.49434395 90.88032363 -82.86328125 88.49609375 C-82.20328125 87.56796875 -81.54328125 86.63984375 -80.86328125 85.68359375 C-80.20328125 85.68359375 -79.54328125 85.68359375 -78.86328125 85.68359375 C-78.54037109 84.89662109 -78.54037109 84.89662109 -78.2109375 84.09375 C-76.33464667 80.7381806 -73.82819773 77.99292693 -71.30078125 75.12109375 C-70.2034989 73.85757631 -69.10715202 72.59324589 -68.01171875 71.328125 C-67.47256836 70.70631348 -66.93341797 70.08450195 -66.37792969 69.44384766 C-62.78239598 65.26528576 -59.3341922 60.96551821 -55.86328125 56.68359375 C-54.8793789 55.48138385 -53.89497158 54.27958712 -52.91015625 53.078125 C-46.50842307 45.25411163 -40.22900282 37.34688149 -34.04443359 29.35009766 C-29.71214546 23.75366945 -25.31587653 18.2128246 -20.85717773 12.71655273 C-20.40415283 12.15524658 -19.95112793 11.59394043 -19.484375 11.015625 C-19.06322922 10.50635971 -18.64208344 9.99709442 -18.20817566 9.47239685 C-16.82650707 7.74208929 -16.82650707 7.74208929 -15.93063354 5.85098267 C-12.25776525 -0.95103215 -7.09391782 -0.23055884 0 0 Z " fill="#FEFEFE" transform="translate(192.86328125,56.31640625)"/>
<path d="M0 0 C-3.35221437 5.08747829 -6.76979077 10.12413097 -10.25 15.125 C-14.79101342 21.65548335 -19.20546587 28.26676988 -23.60205078 34.89501953 C-26.29313725 38.94715846 -28.99396211 42.992813 -31.69284058 47.0397644 C-34.3372864 51.00541445 -36.98107152 54.97150503 -39.625 58.9375 C-40.8385393 60.75781408 -42.05208101 62.57812655 -43.265625 64.3984375 C-43.87986328 65.31979492 -44.49410156 66.24115234 -45.12695312 67.19042969 C-52.53515625 78.30273438 -59.94335938 89.41503906 -67.3515625 100.52734375 C-68.59590345 102.39385517 -69.84019897 104.26039687 -71.08447266 106.12695312 C-72.39689969 108.0954264 -73.70991756 110.06350584 -75.0234375 112.03125 C-76.28351223 113.92385235 -77.53919653 115.81939036 -78.7890625 117.71875 C-85.32440624 127.61910051 -92.16489879 137.30531562 -99 147 C-99.71687988 148.01924561 -99.71687988 148.01924561 -100.44824219 149.05908203 C-105.75380065 156.59516452 -111.21697284 163.97915284 -116.87109375 171.2578125 C-118.16380223 172.9229159 -119.41838644 174.61990754 -120.59765625 176.3671875 C-121.06042969 176.90601563 -121.52320313 177.44484375 -122 178 C-122.99 178 -123.98 178 -125 178 C-125 177.34 -125 176.68 -125 176 C-125.66 176 -126.32 176 -127 176 C-127 176.66 -127 177.32 -127 178 C-128.99954746 178.04254356 -131.00041636 178.04080783 -133 178 C-133.33 177.67 -133.66 177.34 -134 177 C-135.54912841 177.12499357 -137.09222359 177.32615315 -138.62890625 177.55859375 C-140.05879883 177.76645508 -140.05879883 177.76645508 -141.51757812 177.97851562 C-143.52021406 178.28038826 -145.52281913 178.58246578 -147.52539062 178.88476562 C-153.08863958 179.69335573 -158.37816503 180.16711757 -164 180 C-164.33 180.66 -164.66 181.32 -165 182 C-166.65 181.67 -168.3 181.34 -170 181 C-170.33 181.66 -170.66 182.32 -171 183 C-172.051875 182.938125 -173.10375 182.87625 -174.1875 182.8125 C-178.15816493 183.0077786 -179.84196969 183.70325068 -183 186 C-183.33 185.67 -183.66 185.34 -184 185 C-184.66 185.33 -185.32 185.66 -186 186 C-186 185.34 -186 184.68 -186 184 C-187.32 183.67 -188.64 183.34 -190 183 C-189.48953125 182.3915625 -188.9790625 181.783125 -188.453125 181.15625 C-183.28756676 174.92827199 -178.36101776 168.56506879 -173.53662109 162.07104492 C-171.08550806 158.77346202 -168.61989244 155.49321036 -166.08203125 152.26171875 C-165.39645142 151.38652588 -165.39645142 151.38652588 -164.69702148 150.49365234 C-163.45600921 148.91551559 -162.2086894 147.34234473 -160.9609375 145.76953125 C-158.93686752 143.15849693 -158.93686752 143.15849693 -158.0390625 140.44921875 C-156.65900601 137.19622846 -154.53884641 135.44345623 -152 133 C-150.17483688 130.84824289 -148.46066161 128.61832272 -146.75 126.375 C-146.30398437 125.80265625 -145.85796875 125.2303125 -145.3984375 124.640625 C-143.45190571 122.10423509 -142.01872822 120.05618467 -141 117 C-140.4328125 116.43667969 -139.865625 115.87335938 -139.28125 115.29296875 C-136.24975113 112.24589711 -133.94085551 108.83969009 -131.5 105.3125 C-130.43371268 103.78637523 -129.36730283 102.26033606 -128.30078125 100.734375 C-127.75631348 99.95255859 -127.2118457 99.17074219 -126.65087891 98.36523438 C-124.01301152 94.58592955 -121.34927715 90.82498327 -118.6875 87.0625 C-107.18324755 70.78533342 -95.77200462 54.43888304 -84.5 38 C-79.90141904 31.29410642 -75.26731182 24.61318641 -70.625 17.9375 C-69.94630859 16.96103516 -69.26761719 15.98457031 -68.56835938 14.97851562 C-67.91931641 14.04587891 -67.27027344 13.11324219 -66.6015625 12.15234375 C-66.02744629 11.32726318 -65.45333008 10.50218262 -64.86181641 9.65209961 C-64.24741699 8.77690674 -63.63301758 7.90171387 -63 7 C-62.67711502 6.39027344 -62.35423004 5.78054687 -62.02156067 5.15234375 C-60.3408129 2.244055 -59.15961643 0.34349962 -55.84777832 -0.63752747 C-53.14521629 -0.8912373 -50.52260624 -0.91708662 -47.80859375 -0.8671875 C-46.33520287 -0.88206711 -46.33520287 -0.88206711 -44.83204651 -0.89724731 C-41.69968432 -0.92235662 -38.56982568 -0.90001819 -35.4375 -0.875 C-32.30233458 -0.8817304 -29.1673548 -0.89805119 -26.03224182 -0.91702271 C-24.08347787 -0.92532251 -22.13464961 -0.9245737 -20.18589783 -0.91378784 C-19.30140457 -0.91113922 -18.41691132 -0.9084906 -17.50561523 -0.90576172 C-16.73015854 -0.90019257 -15.95470184 -0.89462341 -15.15574646 -0.8888855 C-12.989872 -0.93017755 -12.989872 -0.93017755 -10.9098053 -1.52932739 C-7.17438658 -2.44992347 -3.56177703 -1.18725901 0 0 Z M-132 176 C-128 177 -128 177 -128 177 Z " fill="#FEFEFE" transform="translate(312,57)"/>
<path d="M0 0 C0.99 0 1.98 0 3 0 C2.58427734 1.77503906 2.58427734 1.77503906 2.16015625 3.5859375 C0.28515183 11.72070438 -1.46103638 19.64606395 -2 28 C-2.66 28 -3.32 28 -4 28 C-4.04526825 28.59330612 -4.0905365 29.18661224 -4.13717651 29.79789734 C-4.70727683 36.36643225 -5.8708614 42.65609097 -7.3203125 49.08203125 C-7.77757017 51.16857019 -8.23459467 53.25516023 -8.69140625 55.34179688 C-9.40995721 58.59253719 -10.13170824 61.84251277 -10.85791016 65.09155273 C-11.56229769 68.25322207 -12.25449326 71.41737399 -12.9453125 74.58203125 C-13.16607452 75.55292191 -13.38683655 76.52381256 -13.61428833 77.52412415 C-13.81134369 78.43244492 -14.00839905 79.34076569 -14.21142578 80.27661133 C-14.38827911 81.07029617 -14.56513245 81.86398102 -14.74734497 82.68171692 C-15.03582275 85.32869831 -14.64059163 87.42871809 -14 90 C-14.99 90 -15.98 90 -17 90 C-17 91.65 -17 93.3 -17 95 C-18.299375 94.835 -19.59875 94.67 -20.9375 94.5 C-25.65419287 93.9684362 -30.25638935 93.92470459 -35 94 C-35.33 94.66 -35.66 95.32 -36 96 C-38.88671875 96.37890625 -38.88671875 96.37890625 -42.6875 96.5625 C-44.04690178 96.63491565 -45.40627626 96.70784549 -46.765625 96.78125 C-47.46365234 96.81605469 -48.16167969 96.85085937 -48.88085938 96.88671875 C-52.23671771 97.06611026 -55.58588079 97.31625859 -58.9375 97.5625 C-60.10152344 97.64628906 -61.26554688 97.73007813 -62.46484375 97.81640625 C-63.30144531 97.87699219 -64.13804687 97.93757813 -65 98 C-64.6596875 97.55011719 -64.319375 97.10023438 -63.96875 96.63671875 C-62.30562935 94.42954534 -60.65138887 92.21596626 -59 90 C-58.39671875 89.19046875 -57.7934375 88.3809375 -57.171875 87.546875 C-52.07733634 80.62989975 -47.29622388 73.52608778 -42.56201172 66.36132812 C-39.40497282 61.58876166 -36.23398218 56.8254761 -33.0625 52.0625 C-32.37212646 51.02536865 -31.68175293 49.9882373 -30.97045898 48.91967773 C-27.0482431 43.03797754 -23.08794183 37.18646414 -19.0625 31.375 C-15.60547052 26.37277822 -12.19629423 21.34358429 -8.875 16.25 C-8.49609619 15.67685059 -8.11719238 15.10370117 -7.72680664 14.51318359 C-5.93056643 11.72982793 -4.52800383 9.29602389 -4 6 C-3.34 6 -2.68 6 -2 6 C-1.34 4.02 -0.68 2.04 0 0 Z " fill="#FEFEFE" transform="translate(280,131)"/>
<path d="M0 0 C0.99 0 1.98 0 3 0 C3.33 0.99 3.66 1.98 4 3 C2.68 3.33 1.36 3.66 0 4 C0 2.68 0 1.36 0 0 Z " fill="#FFFFFF" transform="translate(275,131)"/>
<path d="M0 0 C0.33 0.99 0.66 1.98 1 3 C0.34 3.66 -0.32 4.32 -1 5 C-0.67 3.35 -0.34 1.7 0 0 Z " fill="#FFFFFF" transform="translate(106,235)"/>
<path d="M0 0 C0.99 0.33 1.98 0.66 3 1 C2.34 1 1.68 1 1 1 C0.67 2.32 0.34 3.64 0 5 C0 3.35 0 1.7 0 0 Z " fill="#FFFFFF" transform="translate(259,155)"/>
<path d="M0 0 C0.33 0.66 0.66 1.32 1 2 C-0.65 2 -2.3 2 -4 2 C-2.68 1.34 -1.36 0.68 0 0 Z " fill="#FFFFFF" transform="translate(18,256)"/>
<path d="M0 0 C0.99 0.33 1.98 0.66 3 1 C1.68 1.33 0.36 1.66 -1 2 C-0.67 1.34 -0.34 0.68 0 0 Z " fill="#FFFFFF" transform="translate(104,147)"/>
<path d="M0 0 C0.99 0.33 1.98 0.66 3 1 C2.01 1.33 1.02 1.66 0 2 C0 1.34 0 0.68 0 0 Z " fill="#FFFFFF" transform="translate(11,251)"/>
<path d="M0 0 C1.65 0 3.3 0 5 0 C5 0.33 5 0.66 5 1 C3.35 1 1.7 1 0 1 C0 0.67 0 0.34 0 0 Z " fill="#FFFFFF" transform="translate(74,248)"/>
<path d="M0 0 C1.65 0 3.3 0 5 0 C5 0.33 5 0.66 5 1 C3.35 1 1.7 1 0 1 C0 0.67 0 0.34 0 0 Z " fill="#FFFFFF" transform="translate(217,230)"/>
<path d="M0 0 C1.32 0.33 2.64 0.66 4 1 C3.01 1.495 3.01 1.495 2 2 C1.34 1.34 0.68 0.68 0 0 Z " fill="#FFFFFF" transform="translate(223,229)"/>
<path d="M0 0 C0.33 0.66 0.66 1.32 1 2 C0.34 2.66 -0.32 3.32 -1 4 C-0.67 2.68 -0.34 1.36 0 0 Z " fill="#FFFFFF" transform="translate(282,140)"/>
<path d="M0 0 C1.65 0 3.3 0 5 0 C5 0.33 5 0.66 5 1 C3.35 1 1.7 1 0 1 C0 0.67 0 0.34 0 0 Z " fill="#FFFFFF" transform="translate(271,55)"/>
<path d="M0 0 C0.33 0.66 0.66 1.32 1 2 C0.01 1.67 -0.98 1.34 -2 1 C-1.34 0.67 -0.68 0.34 0 0 Z " fill="#FFFFFF" transform="translate(57,203)"/>
<path d="M0 0 C0.99 1.485 0.99 1.485 2 3 C1.34 3 0.68 3 0 3 C0 2.01 0 1.02 0 0 Z " fill="#FFFFFF" transform="translate(279,151)"/>
<path d="M0 0 C1 4 1 4 1 4 Z " fill="#FFFFFF" transform="translate(191,142)"/>
<path d="M0 0 C0.66 0.33 1.32 0.66 2 1 C1.01 1 0.02 1 -1 1 C-0.67 0.67 -0.34 0.34 0 0 Z " fill="#FFFFFF" transform="translate(213,109)"/>
<path d="M0 0 C1.485 0.99 1.485 0.99 3 2 C2.01 2 1.02 2 0 2 C0 1.34 0 0.68 0 0 Z " fill="#FFFFFF" transform="translate(197,54)"/>
<path d="M0 0 C0.66 0.66 1.32 1.32 2 2 C1.34 2 0.68 2 0 2 C0 1.34 0 0.68 0 0 Z " fill="#FFFFFF" transform="translate(122,227)"/>
<path d="M0 0 C3 1 3 1 3 1 Z " fill="#FFFFFF" transform="translate(247,226)"/>
<path d="M0 0 C0.66 0 1.32 0 2 0 C1.67 0.66 1.34 1.32 1 2 C0.67 1.34 0.34 0.68 0 0 Z " fill="#FFFFFF" transform="translate(139,214)"/>
<path d="M0 0 C0.33 0.66 0.66 1.32 1 2 C0.34 1.67 -0.32 1.34 -1 1 C-0.67 0.67 -0.34 0.34 0 0 Z " fill="#FFFFFF" transform="translate(127,208)"/>
<path d="M0 0 C3 1 3 1 3 1 Z " fill="#FFFFFF" transform="translate(135,201)"/>
<path d="M0 0 C0.99 0.495 0.99 0.495 2 1 C1.01 1.495 1.01 1.495 0 2 C0 1.34 0 0.68 0 0 Z " fill="#FFFFFF" transform="translate(137,197)"/>
<path d="" fill="#FFFFFF" transform="translate(0,0)"/>
<path d="M0 0 C3 1 3 1 3 1 Z " fill="#FFFFFF" transform="translate(238,188)"/>
<path d="M0 0 C0.66 0 1.32 0 2 0 C1.67 0.66 1.34 1.32 1 2 C0.67 1.34 0.34 0.68 0 0 Z " fill="#FFFFFF" transform="translate(171,170)"/>
<path d="M0 0 C0.99 0.495 0.99 0.495 2 1 C1.01 1.495 1.01 1.495 0 2 C0 1.34 0 0.68 0 0 Z " fill="#FFFFFF" transform="translate(103,150)"/>
<path d="M0 0 C0.33 0.66 0.66 1.32 1 2 C0.34 1.67 -0.32 1.34 -1 1 C-0.67 0.67 -0.34 0.34 0 0 Z " fill="#FFFFFF" transform="translate(281,145)"/>
<path d="M0 0 C0.99 0.495 0.99 0.495 2 1 C1.01 1.495 1.01 1.495 0 2 C0 1.34 0 0.68 0 0 Z " fill="#FFFFFF" transform="translate(175,145)"/>
<path d="" fill="#FFFFFF" transform="translate(0,0)"/>
<path d="M0 0 C0.99 0.495 0.99 0.495 2 1 C1.01 1.495 1.01 1.495 0 2 C0 1.34 0 0.68 0 0 Z " fill="#FFFFFF" transform="translate(117,133)"/>
<path d="M0 0 C0.99 0.495 0.99 0.495 2 1 C1.01 1.495 1.01 1.495 0 2 C0 1.34 0 0.68 0 0 Z " fill="#FFFFFF" transform="translate(213,112)"/>
<path d="M0 0 C3 1 3 1 3 1 Z " fill="#FFFFFF" transform="translate(147,94)"/>
<path d="M0 0 C0.66 0.66 1.32 1.32 2 2 C1.34 2 0.68 2 0 2 C0 1.34 0 0.68 0 0 Z " fill="#FFFFFF" transform="translate(263,54)"/>
<path d="M0 0 C3 1 3 1 3 1 Z " fill="#FFFFFF" transform="translate(202,55)"/>
<path d="M0 0 C2 1 2 1 2 1 Z " fill="#FFFFFF" transform="translate(32,257)"/>
<path d="M0 0 C2 1 2 1 2 1 Z " fill="#FFFFFF" transform="translate(33,254)"/>
<path d="M0 0 C2 1 2 1 2 1 Z " fill="#FFFFFF" transform="translate(59,250)"/>
<path d="M0 0 C2 1 2 1 2 1 Z " fill="#FFFFFF" transform="translate(97,245)"/>
<path d="" fill="#FFFFFF" transform="translate(0,0)"/>
<path d="M0 0 C2 1 2 1 2 1 Z " fill="#FFFFFF" transform="translate(20,243)"/>
<path d="M0 0 C2 1 2 1 2 1 Z " fill="#FFFFFF" transform="translate(123,242)"/>
<path d="M0 0 C2 1 2 1 2 1 Z " fill="#FFFFFF" transform="translate(143,239)"/>
<path d="" fill="#FFFFFF" transform="translate(0,0)"/>
<path d="M0 0 C2 1 2 1 2 1 Z " fill="#FFFFFF" transform="translate(215,231)"/>
<path d="M0 0 C2 1 2 1 2 1 Z " fill="#FFFFFF" transform="translate(254,225)"/>
<path d="" fill="#FFFFFF" transform="translate(0,0)"/>
<path d="" fill="#FFFFFF" transform="translate(0,0)"/>
<path d="" fill="#FFFFFF" transform="translate(0,0)"/>
<path d="" fill="#FFFFFF" transform="translate(0,0)"/>
<path d="" fill="#FFFFFF" transform="translate(0,0)"/>
<path d="M0 0 C2 1 2 1 2 1 Z " fill="#FFFFFF" transform="translate(51,206)"/>
<path d="" fill="#FFFFFF" transform="translate(0,0)"/>
<path d="" fill="#FFFFFF" transform="translate(0,0)"/>
<path d="" fill="#FFFFFF" transform="translate(0,0)"/>
<path d="M0 0 C2 1 2 1 2 1 Z " fill="#FFFFFF" transform="translate(261,158)"/>
<path d="" fill="#FFFFFF" transform="translate(0,0)"/>
<path d="M0 0 C2 1 2 1 2 1 Z " fill="#FFFFFF" transform="translate(191,140)"/>
<path d="" fill="#FFFFFF" transform="translate(0,0)"/>
<path d="M0 0 C2 1 2 1 2 1 Z " fill="#FFFFFF" transform="translate(195,132)"/>
<path d="" fill="#FFFFFF" transform="translate(0,0)"/>
<path d="M0 0 C2 1 2 1 2 1 Z " fill="#FFFFFF" transform="translate(215,108)"/>
<path d="M0 0 C2 1 2 1 2 1 Z " fill="#FFFFFF" transform="translate(201,105)"/>
<path d="" fill="#FFFFFF" transform="translate(0,0)"/>
<path d="" fill="#FFFFFF" transform="translate(0,0)"/>
<path d="M0 0 C2 1 2 1 2 1 Z " fill="#FFFFFF" transform="translate(140,102)"/>
<path d="" fill="#FFFFFF" transform="translate(0,0)"/>
<path d="" fill="#FFFFFF" transform="translate(0,0)"/>
<path d="" fill="#FFFFFF" transform="translate(0,0)"/>
<path d="M0 0 C2 1 2 1 2 1 Z " fill="#FFFFFF" transform="translate(170,68)"/>
<path d="M0 0 C2 1 2 1 2 1 Z " fill="#FFFFFF" transform="translate(287,55)"/>
<path d="M0 0 C2 1 2 1 2 1 Z " fill="#FFFFFF" transform="translate(282,55)"/>
<path d="M0 0 C2 1 2 1 2 1 Z " fill="#FFFFFF" transform="translate(279,55)"/>
<path d="M0 0 C2 1 2 1 2 1 Z " fill="#FFFFFF" transform="translate(258,55)"/>
<path d="M0 0 C2 1 2 1 2 1 Z " fill="#FFFFFF" transform="translate(218,55)"/>
<path d="M0 0 C2 1 2 1 2 1 Z " fill="#FFFFFF" transform="translate(215,55)"/>
<path d="M0 0 C2 1 2 1 2 1 Z " fill="#FFFFFF" transform="translate(211,55)"/>
<path d="M0 0 C2 1 2 1 2 1 Z " fill="#FFFFFF" transform="translate(194,55)"/>
<path d="" fill="#FFFFFF" transform="translate(0,0)"/>
<path d="" fill="#FFFFFF" transform="translate(0,0)"/>
<path d="" fill="#FFFFFF" transform="translate(0,0)"/>
<path d="" fill="#FFFFFF" transform="translate(0,0)"/>
<path d="" fill="#FFFFFF" transform="translate(0,0)"/>
<path d="" fill="#FFFFFF" transform="translate(0,0)"/>
<path d="" fill="#FFFFFF" transform="translate(0,0)"/>
<path d="" fill="#FFFFFF" transform="translate(0,0)"/>
<path d="" fill="#FFFFFF" transform="translate(0,0)"/>
<path d="" fill="#FFFFFF" transform="translate(0,0)"/>
<path d="" fill="#FFFFFF" transform="translate(0,0)"/>
<path d="" fill="#FFFFFF" transform="translate(0,0)"/>
<path d="" fill="#FFFFFF" transform="translate(0,0)"/>
<path d="" fill="#FFFFFF" transform="translate(0,0)"/>
<path d="" fill="#FFFFFF" transform="translate(0,0)"/>
<path d="" fill="#FFFFFF" transform="translate(0,0)"/>
<path d="" fill="#FFFFFF" transform="translate(0,0)"/>
<path d="" fill="#FFFFFF" transform="translate(0,0)"/>
<path d="" fill="#FFFFFF" transform="translate(0,0)"/>
<path d="" fill="#FFFFFF" transform="translate(0,0)"/>
<path d="" fill="#FFFFFF" transform="translate(0,0)"/>
<path d="" fill="#FFFFFF" transform="translate(0,0)"/>
<path d="" fill="#FFFFFF" transform="translate(0,0)"/>
<path d="" fill="#FFFFFF" transform="translate(0,0)"/>
<path d="" fill="#FFFFFF" transform="translate(0,0)"/>
<path d="" fill="#FFFFFF" transform="translate(0,0)"/>
<path d="" fill="#FFFFFF" transform="translate(0,0)"/>
<path d="" fill="#FFFFFF" transform="translate(0,0)"/>
<path d="" fill="#FFFFFF" transform="translate(0,0)"/>
<path d="" fill="#FFFFFF" transform="translate(0,0)"/>
<path d="" fill="#FFFFFF" transform="translate(0,0)"/>
<path d="" fill="#FFFFFF" transform="translate(0,0)"/>
<path d="" fill="#FFFFFF" transform="translate(0,0)"/>
<path d="" fill="#FFFFFF" transform="translate(0,0)"/>
<path d="" fill="#FFFFFF" transform="translate(0,0)"/>
<path d="" fill="#FFFFFF" transform="translate(0,0)"/>
<path d="" fill="#FFFFFF" transform="translate(0,0)"/>
<path d="" fill="#FFFFFF" transform="translate(0,0)"/>
<path d="" fill="#FFFFFF" transform="translate(0,0)"/>
<path d="" fill="#FFFFFF" transform="translate(0,0)"/>
<path d="" fill="#FFFFFF" transform="translate(0,0)"/>
<path d="" fill="#FFFFFF" transform="translate(0,0)"/>
<path d="" fill="#FFFFFF" transform="translate(0,0)"/>
<path d="" fill="#FFFFFF" transform="translate(0,0)"/>
<path d="" fill="#FFFFFF" transform="translate(0,0)"/>
<path d="" fill="#FFFFFF" transform="translate(0,0)"/>
<path d="" fill="#FFFFFF" transform="translate(0,0)"/>
<path d="" fill="#FFFFFF" transform="translate(0,0)"/>
<path d="" fill="#FFFFFF" transform="translate(0,0)"/>
<path d="" fill="#FFFFFF" transform="translate(0,0)"/>
<path d="" fill="#FFFFFF" transform="translate(0,0)"/>
<path d="" fill="#FFFFFF" transform="translate(0,0)"/>
<path d="" fill="#FFFFFF" transform="translate(0,0)"/>
<path d="" fill="#FFFFFF" transform="translate(0,0)"/>
<path d="" fill="#FFFFFF" transform="translate(0,0)"/>
<path d="" fill="#FFFFFF" transform="translate(0,0)"/>
<path d="" fill="#FFFFFF" transform="translate(0,0)"/>
<path d="" fill="#FFFFFF" transform="translate(0,0)"/>
<path d="" fill="#FFFFFF" transform="translate(0,0)"/>
<path d="" fill="#FFFFFF" transform="translate(0,0)"/>
<path d="" fill="#FFFFFF" transform="translate(0,0)"/>
<path d="" fill="#FFFFFF" transform="translate(0,0)"/>
<path d="" fill="#FFFFFF" transform="translate(0,0)"/>
<path d="" fill="#FFFFFF" transform="translate(0,0)"/>
<path d="" fill="#FFFFFF" transform="translate(0,0)"/>
<path d="" fill="#FFFFFF" transform="translate(0,0)"/>
<path d="" fill="#FFFFFF" transform="translate(0,0)"/>
<path d="" fill="#FFFFFF" transform="translate(0,0)"/>
<path d="" fill="#FFFFFF" transform="translate(0,0)"/>
<path d="" fill="#FFFFFF" transform="translate(0,0)"/>
<path d="" fill="#FFFFFF" transform="translate(0,0)"/>
<path d="" fill="#FFFFFF" transform="translate(0,0)"/>
<path d="" fill="#FFFFFF" transform="translate(0,0)"/>
<path d="" fill="#FFFFFF" transform="translate(0,0)"/>
<path d="" fill="#FFFFFF" transform="translate(0,0)"/>
<path d="" fill="#FFFFFF" transform="translate(0,0)"/>
<path d="" fill="#FFFFFF" transform="translate(0,0)"/>
<path d="" fill="#FFFFFF" transform="translate(0,0)"/>
<path d="" fill="#FFFFFF" transform="translate(0,0)"/>
<path d="" fill="#FFFFFF" transform="translate(0,0)"/>
<path d="" fill="#FFFFFF" transform="translate(0,0)"/>
<path d="" fill="#FFFFFF" transform="translate(0,0)"/>
<path d="" fill="#FFFFFF" transform="translate(0,0)"/>
<path d="" fill="#FFFFFF" transform="translate(0,0)"/>
<path d="" fill="#FFFFFF" transform="translate(0,0)"/>
<path d="" fill="#FFFFFF" transform="translate(0,0)"/>
<path d="" fill="#FFFFFF" transform="translate(0,0)"/>
<path d="" fill="#FFFFFF" transform="translate(0,0)"/>
<path d="" fill="#FFFFFF" transform="translate(0,0)"/>
<path d="" fill="#FFFFFF" transform="translate(0,0)"/>
<path d="" fill="#FFFFFF" transform="translate(0,0)"/>
<path d="" fill="#FFFFFF" transform="translate(0,0)"/>
<path d="" fill="#FFFFFF" transform="translate(0,0)"/>
<path d="" fill="#FFFFFF" transform="translate(0,0)"/>
<path d="" fill="#FFFFFF" transform="translate(0,0)"/>
<path d="" fill="#FFFFFF" transform="translate(0,0)"/>
<path d="" fill="#FFFFFF" transform="translate(0,0)"/>
<path d="" fill="#FFFFFF" transform="translate(0,0)"/>
<path d="" fill="#FFFFFF" transform="translate(0,0)"/>
<path d="" fill="#FFFFFF" transform="translate(0,0)"/>
<path d="" fill="#FFFFFF" transform="translate(0,0)"/>
<path d="" fill="#FFFFFF" transform="translate(0,0)"/>
<path d="" fill="#FFFFFF" transform="translate(0,0)"/>
<path d="" fill="#FFFFFF" transform="translate(0,0)"/>
<path d="" fill="#FFFFFF" transform="translate(0,0)"/>
<path d="" fill="#FFFFFF" transform="translate(0,0)"/>
<path d="" fill="#FFFFFF" transform="translate(0,0)"/>
<path d="" fill="#FFFFFF" transform="translate(0,0)"/>
<path d="" fill="#FFFFFF" transform="translate(0,0)"/>
<path d="" fill="#FFFFFF" transform="translate(0,0)"/>
<path d="" fill="#FFFFFF" transform="translate(0,0)"/>
<path d="" fill="#FFFFFF" transform="translate(0,0)"/>
<path d="" fill="#FFFFFF" transform="translate(0,0)"/>
<path d="" fill="#FFFFFF" transform="translate(0,0)"/>
<path d="" fill="#FFFFFF" transform="translate(0,0)"/>
<path d="" fill="#FFFFFF" transform="translate(0,0)"/>
<path d="" fill="#FFFFFF" transform="translate(0,0)"/>
<path d="" fill="#FFFFFF" transform="translate(0,0)"/>
<path d="" fill="#FFFFFF" transform="translate(0,0)"/>
<path d="" fill="#FFFFFF" transform="translate(0,0)"/>
<path d="" fill="#FFFFFF" transform="translate(0,0)"/>
<path d="" fill="#FFFFFF" transform="translate(0,0)"/>
<path d="" fill="#FFFFFF" transform="translate(0,0)"/>
<path d="" fill="#FFFFFF" transform="translate(0,0)"/>
<path d="" fill="#FFFFFF" transform="translate(0,0)"/>
<path d="" fill="#FFFFFF" transform="translate(0,0)"/>
<path d="" fill="#FFFFFF" transform="translate(0,0)"/>
<path d="" fill="#FFFFFF" transform="translate(0,0)"/>
<path d="" fill="#FFFFFF" transform="translate(0,0)"/>
<path d="" fill="#FFFFFF" transform="translate(0,0)"/>
<path d="" fill="#FFFFFF" transform="translate(0,0)"/>
<path d="" fill="#FFFFFF" transform="translate(0,0)"/>
<path d="" fill="#FFFFFF" transform="translate(0,0)"/>
<path d="" fill="#FFFFFF" transform="translate(0,0)"/>
<path d="" fill="#FFFFFF" transform="translate(0,0)"/>
<path d="" fill="#FFFFFF" transform="translate(0,0)"/>
<path d="" fill="#FFFFFF" transform="translate(0,0)"/>
<path d="" fill="#FFFFFF" transform="translate(0,0)"/>
<path d="" fill="#FFFFFF" transform="translate(0,0)"/>
<path d="" fill="#FFFFFF" transform="translate(0,0)"/>
<path d="" fill="#FFFFFF" transform="translate(0,0)"/>
<path d="" fill="#FFFFFF" transform="translate(0,0)"/>
<path d="" fill="#FFFFFF" transform="translate(0,0)"/>
<path d="" fill="#FFFFFF" transform="translate(0,0)"/>
<path d="" fill="#FFFFFF" transform="translate(0,0)"/>
<path d="" fill="#FFFFFF" transform="translate(0,0)"/>
<path d="" fill="#FFFFFF" transform="translate(0,0)"/>
<path d="" fill="#FFFFFF" transform="translate(0,0)"/>
<path d="" fill="#FFFFFF" transform="translate(0,0)"/>
<path d="" fill="#FFFFFF" transform="translate(0,0)"/>
<path d="" fill="#FFFFFF" transform="translate(0,0)"/>
<path d="" fill="#FFFFFF" transform="translate(0,0)"/>
<path d="" fill="#FFFFFF" transform="translate(0,0)"/>
<path d="" fill="#FFFFFF" transform="translate(0,0)"/>
<path d="" fill="#FFFFFF" transform="translate(0,0)"/>
<path d="" fill="#FFFFFF" transform="translate(0,0)"/>
<path d="" fill="#FFFFFF" transform="translate(0,0)"/>
<path d="" fill="#FFFFFF" transform="translate(0,0)"/>
<path d="" fill="#FFFFFF" transform="translate(0,0)"/>
<path d="" fill="#FFFFFF" transform="translate(0,0)"/>
<path d="" fill="#FFFFFF" transform="translate(0,0)"/>
<path d="" fill="#FFFFFF" transform="translate(0,0)"/>
<path d="" fill="#FFFFFF" transform="translate(0,0)"/>
<path d="" fill="#FFFFFF" transform="translate(0,0)"/>
<path d="" fill="#FFFFFF" transform="translate(0,0)"/>
<path d="" fill="#FFFFFF" transform="translate(0,0)"/>
<path d="" fill="#FFFFFF" transform="translate(0,0)"/>
<path d="" fill="#FFFFFF" transform="translate(0,0)"/>
<path d="" fill="#FFFFFF" transform="translate(0,0)"/>
<path d="" fill="#FFFFFF" transform="translate(0,0)"/>
<path d="" fill="#FFFFFF" transform="translate(0,0)"/>
<path d="" fill="#FFFFFF" transform="translate(0,0)"/>
<path d="" fill="#FFFFFF" transform="translate(0,0)"/>
<path d="" fill="#FFFFFF" transform="translate(0,0)"/>
<path d="" fill="#FFFFFF" transform="translate(0,0)"/>
<path d="" fill="#FFFFFF" transform="translate(0,0)"/>
<path d="" fill="#FFFFFF" transform="translate(0,0)"/>
<path d="" fill="#FFFFFF" transform="translate(0,0)"/>
<path d="" fill="#FFFFFF" transform="translate(0,0)"/>
<path d="" fill="#FFFFFF" transform="translate(0,0)"/>
<path d="" fill="#FFFFFF" transform="translate(0,0)"/>
<path d="" fill="#FFFFFF" transform="translate(0,0)"/>
<path d="" fill="#FFFFFF" transform="translate(0,0)"/>
<path d="" fill="#FFFFFF" transform="translate(0,0)"/>
<path d="" fill="#FFFFFF" transform="translate(0,0)"/>
<path d="" fill="#FFFFFF" transform="translate(0,0)"/>
<path d="" fill="#FFFFFF" transform="translate(0,0)"/>
<path d="" fill="#FFFFFF" transform="translate(0,0)"/>
<path d="" fill="#FFFFFF" transform="translate(0,0)"/>
<path d="" fill="#FFFFFF" transform="translate(0,0)"/>
<path d="" fill="#FFFFFF" transform="translate(0,0)"/>
<path d="" fill="#FFFFFF" transform="translate(0,0)"/>
<path d="" fill="#FFFFFF" transform="translate(0,0)"/>
<path d="" fill="#FFFFFF" transform="translate(0,0)"/>
<path d="" fill="#FFFFFF" transform="translate(0,0)"/>
<path d="" fill="#FFFFFF" transform="translate(0,0)"/>
<path d="" fill="#FFFFFF" transform="translate(0,0)"/>
<path d="" fill="#FFFFFF" transform="translate(0,0)"/>
<path d="" fill="#FFFFFF" transform="translate(0,0)"/>
<path d="" fill="#FFFFFF" transform="translate(0,0)"/>
<path d="" fill="#FFFFFF" transform="translate(0,0)"/>
<path d="" fill="#FFFFFF" transform="translate(0,0)"/>
<path d="" fill="#FFFFFF" transform="translate(0,0)"/>
<path d="" fill="#FFFFFF" transform="translate(0,0)"/>
<path d="" fill="#FFFFFF" transform="translate(0,0)"/>
<path d="" fill="#FFFFFF" transform="translate(0,0)"/>
<path d="" fill="#FFFFFF" transform="translate(0,0)"/>
<path d="" fill="#FFFFFF" transform="translate(0,0)"/>
<path d="" fill="#FFFFFF" transform="translate(0,0)"/>
<path d="" fill="#FFFFFF" transform="translate(0,0)"/>
<path d="" fill="#FFFFFF" transform="translate(0,0)"/>
<path d="" fill="#FFFFFF" transform="translate(0,0)"/>
<path d="" fill="#FFFFFF" transform="translate(0,0)"/>
<path d="" fill="#FFFFFF" transform="translate(0,0)"/>
<path d="" fill="#FFFFFF" transform="translate(0,0)"/>
<path d="" fill="#FFFFFF" transform="translate(0,0)"/>
<path d="" fill="#FFFFFF" transform="translate(0,0)"/>
<path d="" fill="#FFFFFF" transform="translate(0,0)"/>
<path d="" fill="#FFFFFF" transform="translate(0,0)"/>
<path d="" fill="#FFFFFF" transform="translate(0,0)"/>
<path d="" fill="#FFFFFF" transform="translate(0,0)"/>
<path d="" fill="#FFFFFF" transform="translate(0,0)"/>
<path d="" fill="#FFFFFF" transform="translate(0,0)"/>
<path d="" fill="#FFFFFF" transform="translate(0,0)"/>
<path d="" fill="#FFFFFF" transform="translate(0,0)"/>
<path d="" fill="#FFFFFF" transform="translate(0,0)"/>
<path d="" fill="#FFFFFF" transform="translate(0,0)"/>
<path d="" fill="#FFFFFF" transform="translate(0,0)"/>
<path d="" fill="#FFFFFF" transform="translate(0,0)"/>
<path d="" fill="#FFFFFF" transform="translate(0,0)"/>
<path d="" fill="#FFFFFF" transform="translate(0,0)"/>
<path d="" fill="#FFFFFF" transform="translate(0,0)"/>
<path d="" fill="#FFFFFF" transform="translate(0,0)"/>
<path d="" fill="#FFFFFF" transform="translate(0,0)"/>
<path d="" fill="#FFFFFF" transform="translate(0,0)"/>
<path d="" fill="#FFFFFF" transform="translate(0,0)"/>
<path d="" fill="#FFFFFF" transform="translate(0,0)"/>
<path d="" fill="#FFFFFF" transform="translate(0,0)"/>
<path d="" fill="#FFFFFF" transform="translate(0,0)"/>
<path d="" fill="#FFFFFF" transform="translate(0,0)"/>
<path d="" fill="#FFFFFF" transform="translate(0,0)"/>
<path d="" fill="#FFFFFF" transform="translate(0,0)"/>
<path d="" fill="#FFFFFF" transform="translate(0,0)"/>
<path d="" fill="#FFFFFF" transform="translate(0,0)"/>
<path d="" fill="#FFFFFF" transform="translate(0,0)"/>
<path d="" fill="#FFFFFF" transform="translate(0,0)"/>
<path d="" fill="#FFFFFF" transform="translate(0,0)"/>
<path d="" fill="#FFFFFF" transform="translate(0,0)"/>
<path d="" fill="#FFFFFF" transform="translate(0,0)"/>
<path d="" fill="#FFFFFF" transform="translate(0,0)"/>
<path d="" fill="#FFFFFF" transform="translate(0,0)"/>
<path d="" fill="#FFFFFF" transform="translate(0,0)"/>
<path d="" fill="#FFFFFF" transform="translate(0,0)"/>
<path d="" fill="#FFFFFF" transform="translate(0,0)"/>
<path d="" fill="#FFFFFF" transform="translate(0,0)"/>
<path d="" fill="#FFFFFF" transform="translate(0,0)"/>
<path d="" fill="#FFFFFF" transform="translate(0,0)"/>
<path d="" fill="#FFFFFF" transform="translate(0,0)"/>
<path d="" fill="#FFFFFF" transform="translate(0,0)"/>
<path d="" fill="#FFFFFF" transform="translate(0,0)"/>
<path d="" fill="#FFFFFF" transform="translate(0,0)"/>
<path d="" fill="#FFFFFF" transform="translate(0,0)"/>
<path d="" fill="#FFFFFF" transform="translate(0,0)"/>
<path d="" fill="#FFFFFF" transform="translate(0,0)"/>
<path d="" fill="#FFFFFF" transform="translate(0,0)"/>
<path d="" fill="#FFFFFF" transform="translate(0,0)"/>
<path d="" fill="#FFFFFF" transform="translate(0,0)"/>
<path d="" fill="#FFFFFF" transform="translate(0,0)"/>
<path d="" fill="#FFFFFF" transform="translate(0,0)"/>
<path d="" fill="#FFFFFF" transform="translate(0,0)"/>
<path d="" fill="#FFFFFF" transform="translate(0,0)"/>
<path d="" fill="#FFFFFF" transform="translate(0,0)"/>
<path d="" fill="#FFFFFF" transform="translate(0,0)"/>
<path d="" fill="#FFFFFF" transform="translate(0,0)"/>
<path d="" fill="#FFFFFF" transform="translate(0,0)"/>
<path d="" fill="#FFFFFF" transform="translate(0,0)"/>
<path d="" fill="#FFFFFF" transform="translate(0,0)"/>
<path d="" fill="#FFFFFF" transform="translate(0,0)"/>
<path d="" fill="#FFFFFF" transform="translate(0,0)"/>
<path d="" fill="#FFFFFF" transform="translate(0,0)"/>
<path d="" fill="#FFFFFF" transform="translate(0,0)"/>
<path d="" fill="#FFFFFF" transform="translate(0,0)"/>
<path d="" fill="#FFFFFF" transform="translate(0,0)"/>
<path d="" fill="#FFFFFF" transform="translate(0,0)"/>
<path d="" fill="#FFFFFF" transform="translate(0,0)"/>
<path d="" fill="#FFFFFF" transform="translate(0,0)"/>
<path d="" fill="#FFFFFF" transform="translate(0,0)"/>
<path d="" fill="#FFFFFF" transform="translate(0,0)"/>
<path d="" fill="#FFFFFF" transform="translate(0,0)"/>
<path d="" fill="#FFFFFF" transform="translate(0,0)"/>
<path d="" fill="#FFFFFF" transform="translate(0,0)"/>
<path d="" fill="#FFFFFF" transform="translate(0,0)"/>
<path d="" fill="#FFFFFF" transform="translate(0,0)"/>
<path d="" fill="#FFFFFF" transform="translate(0,0)"/>
<path d="" fill="#FFFFFF" transform="translate(0,0)"/>
<path d="" fill="#FFFFFF" transform="translate(0,0)"/>
<path d="" fill="#FFFFFF" transform="translate(0,0)"/>
<path d="" fill="#FFFFFF" transform="translate(0,0)"/>
<path d="" fill="#FFFFFF" transform="translate(0,0)"/>
<path d="" fill="#FFFFFF" transform="translate(0,0)"/>
<path d="" fill="#FFFFFF" transform="translate(0,0)"/>
<path d="" fill="#FFFFFF" transform="translate(0,0)"/>
<path d="" fill="#FFFFFF" transform="translate(0,0)"/>
<path d="" fill="#FFFFFF" transform="translate(0,0)"/>
</svg>
